<svg xmlns="http://www.w3.org/2000/svg" xmlns:xlink="http://www.w3.org/1999/xlink" width="1080" zoomAndPan="magnify" viewBox="0 0 810 809.999993" height="1080" preserveAspectRatio="xMidYMid meet" version="1.0"><defs><g/><clipPath id="aa8b78aad2"><path d="M 282 104.613281 L 642 104.613281 L 642 623.964844 L 282 623.964844 Z M 282 104.613281 " clip-rule="nonzero"/></clipPath><clipPath id="4be7218cbf"><path d="M 332 223.53125 L 509.425781 223.53125 L 509.425781 479.109375 L 332 479.109375 Z M 332 223.53125 " clip-rule="nonzero"/></clipPath><clipPath id="0e9e3baf55"><path d="M 314.566406 305 L 390 305 L 390 477 L 314.566406 477 Z M 314.566406 305 " clip-rule="nonzero"/></clipPath></defs><rect x="-81" width="972" fill="#ffffff" y="-80.999999" height="971.999992" fill-opacity="1"/><rect x="-81" width="972" fill="#ffffff" y="-80.999999" height="971.999992" fill-opacity="1"/><g clip-path="url(#aa8b78aad2)"><path fill="#6a65ff" d="M 440.550781 104.621094 C 369.996094 104.621094 309.160156 146.039062 282.894531 204.925781 C 317.101562 160.671875 375.050781 131.476562 440.550781 131.476562 C 506.058594 131.476562 564.007812 160.675781 598.21875 204.9375 C 571.953125 146.042969 511.113281 104.621094 440.550781 104.621094 Z M 641.785156 197.769531 C 605.414062 213.835938 596.734375 278.777344 599.476562 308.160156 C 601.324219 327.921875 598.6875 379.628906 592.414062 399.570312 C 584.316406 425.328125 561.289062 470.9375 524.753906 491.285156 C 537.382812 456.203125 552.21875 444.339844 551.933594 411.429688 C 551.828125 399.367188 545.953125 380.667969 528.894531 371.15625 C 521.820312 455.578125 446.546875 503.839844 431.292969 531.851562 C 412.515625 566.332031 405.984375 598.390625 410.503906 623.613281 C 445.082031 578.125 504.347656 616.417969 569.390625 552.476562 C 677.679688 446.019531 605.726562 323.054688 641.785156 197.769531 Z M 641.785156 197.769531 " fill-opacity="1" fill-rule="evenodd"/></g><path fill="#ffe5f9" d="M 400.554688 559.320312 C 407.597656 530.433594 403.445312 490.964844 386.789062 461.089844 C 376.492188 442.628906 326.796875 410.542969 322.109375 354.601562 C 310.804688 360.902344 306.910156 373.292969 306.84375 381.289062 C 306.652344 403.09375 316.484375 410.957031 324.855469 434.207031 C 300.640625 420.722656 285.382812 390.5 280.011719 373.425781 C 275.859375 360.214844 276.425781 330.914062 277.457031 317.800781 C 279.464844 292.179688 271.402344 250.34375 247.300781 239.699219 C 271.195312 322.722656 219.902344 408.078125 295.277344 474.757812 C 338.375 512.886719 365.226562 506.460938 400.554688 559.320312 " fill-opacity="1" fill-rule="evenodd"/><g clip-path="url(#4be7218cbf)"><path fill="#ffe5f9" d="M 352.835938 223.53125 C 352.835938 223.53125 465.632812 350.925781 332.929688 479.648438 C 332.929688 479.648438 476.25 451.78125 509.425781 315.09375 C 509.425781 315.09375 492.171875 348.273438 450.371094 357.5625 C 450.371094 357.5625 427.148438 257.371094 352.835938 223.53125 Z M 352.835938 223.53125 " fill-opacity="1" fill-rule="evenodd"/></g><g clip-path="url(#0e9e3baf55)"><path fill="#273b47" d="M 388.722656 343.585938 C 388.722656 343.585938 390.992188 426.464844 314.5625 476.367188 C 314.5625 476.367188 378.601562 431.617188 367.632812 305.773438 C 367.632812 305.773438 392.417969 320.089844 388.722656 343.585938 Z M 388.722656 343.585938 " fill-opacity="1" fill-rule="evenodd"/></g><path fill="#273b47" d="M 441.085938 289.214844 C 441.085938 290.238281 441.136719 291.253906 441.234375 292.273438 C 441.335938 293.289062 441.484375 294.296875 441.683594 295.300781 C 441.882812 296.300781 442.132812 297.289062 442.429688 298.269531 C 442.722656 299.246094 443.066406 300.207031 443.460938 301.148438 C 443.851562 302.09375 444.285156 303.015625 444.765625 303.917969 C 445.25 304.816406 445.773438 305.691406 446.339844 306.542969 C 446.910156 307.390625 447.515625 308.210938 448.164062 309 C 448.8125 309.789062 449.496094 310.542969 450.21875 311.265625 C 450.941406 311.988281 451.695312 312.675781 452.488281 313.320312 C 453.277344 313.96875 454.09375 314.578125 454.945312 315.144531 C 455.792969 315.710938 456.667969 316.238281 457.570312 316.71875 C 458.46875 317.199219 459.394531 317.636719 460.335938 318.027344 C 461.28125 318.417969 462.242188 318.761719 463.21875 319.058594 C 464.195312 319.355469 465.183594 319.601562 466.1875 319.800781 C 467.1875 320 468.195312 320.148438 469.214844 320.25 C 470.230469 320.351562 471.25 320.402344 472.269531 320.402344 C 473.292969 320.402344 474.308594 320.351562 475.328125 320.25 C 476.34375 320.148438 477.351562 320 478.355469 319.800781 C 479.355469 319.601562 480.34375 319.355469 481.324219 319.058594 C 482.300781 318.761719 483.261719 318.417969 484.203125 318.027344 C 485.148438 317.636719 486.070312 317.199219 486.972656 316.71875 C 487.871094 316.238281 488.746094 315.710938 489.59375 315.144531 C 490.445312 314.578125 491.265625 313.96875 492.054688 313.320312 C 492.84375 312.675781 493.597656 311.988281 494.320312 311.265625 C 495.042969 310.542969 495.730469 309.789062 496.375 309 C 497.023438 308.210938 497.632812 307.390625 498.199219 306.542969 C 498.765625 305.691406 499.292969 304.816406 499.773438 303.917969 C 500.253906 303.015625 500.691406 302.09375 501.082031 301.148438 C 501.472656 300.207031 501.816406 299.246094 502.113281 298.269531 C 502.410156 297.289062 502.65625 296.300781 502.855469 295.300781 C 503.054688 294.296875 503.203125 293.289062 503.304688 292.273438 C 503.40625 291.253906 503.457031 290.238281 503.457031 289.214844 C 503.457031 288.195312 503.40625 287.175781 503.304688 286.160156 C 503.203125 285.140625 503.054688 284.132812 502.855469 283.132812 C 502.65625 282.128906 502.410156 281.140625 502.113281 280.164062 C 501.816406 279.1875 501.472656 278.226562 501.082031 277.28125 C 500.691406 276.339844 500.253906 275.414062 499.773438 274.515625 C 499.292969 273.613281 498.765625 272.738281 498.199219 271.890625 C 497.632812 271.039062 497.023438 270.222656 496.375 269.433594 C 495.730469 268.640625 495.042969 267.886719 494.320312 267.164062 C 493.597656 266.441406 492.84375 265.757812 492.054688 265.109375 C 491.265625 264.460938 490.445312 263.855469 489.59375 263.285156 C 488.746094 262.71875 487.871094 262.195312 486.972656 261.714844 C 486.070312 261.230469 485.148438 260.796875 484.203125 260.40625 C 483.261719 260.011719 482.300781 259.667969 481.324219 259.375 C 480.34375 259.078125 479.355469 258.828125 478.355469 258.628906 C 477.351562 258.429688 476.34375 258.28125 475.328125 258.179688 C 474.308594 258.082031 473.292969 258.03125 472.269531 258.03125 C 471.25 258.03125 470.230469 258.082031 469.214844 258.179688 C 468.195312 258.28125 467.1875 258.429688 466.1875 258.628906 C 465.183594 258.828125 464.195312 259.078125 463.21875 259.375 C 462.242188 259.667969 461.28125 260.011719 460.335938 260.40625 C 459.394531 260.796875 458.46875 261.230469 457.570312 261.714844 C 456.667969 262.195312 455.792969 262.71875 454.945312 263.285156 C 454.09375 263.855469 453.277344 264.460938 452.488281 265.109375 C 451.695312 265.757812 450.941406 266.441406 450.21875 267.164062 C 449.496094 267.886719 448.8125 268.640625 448.164062 269.433594 C 447.515625 270.222656 446.910156 271.039062 446.339844 271.890625 C 445.773438 272.738281 445.25 273.613281 444.765625 274.515625 C 444.285156 275.414062 443.851562 276.339844 443.460938 277.28125 C 443.066406 278.226562 442.722656 279.1875 442.429688 280.164062 C 442.132812 281.140625 441.882812 282.128906 441.683594 283.132812 C 441.484375 284.132812 441.335938 285.140625 441.234375 286.160156 C 441.136719 287.175781 441.085938 288.195312 441.085938 289.214844 Z M 441.085938 289.214844 " fill-opacity="1" fill-rule="nonzero"/><g fill="#6a65ff" fill-opacity="1"><g transform="translate(496.50199, 655.694021)"><g><path d="M 20.988281 -8.339844 L 19.855469 -11.1875 L 5.222656 -5.371094 L 1.007812 -15.976562 L 15.203125 -21.617188 L 14.054688 -24.507812 L -0.140625 -18.867188 L -4.355469 -29.472656 L 10.28125 -35.285156 L 9.148438 -38.136719 L -8.554688 -31.101562 L 3.285156 -1.304688 Z M 20.988281 -8.339844 "/></g></g></g><g fill="#6a65ff" fill-opacity="1"><g transform="translate(526.657173, 643.645336)"><g><path d="M 28.886719 -16.160156 L 31.808594 -17.792969 L 8.617188 -43.988281 L 12.839844 -14.90625 L -9.734375 -33.722656 L 0.410156 -0.230469 L 3.375 -1.886719 L -3.445312 -24.21875 L 17.050781 -7.378906 L 13.382812 -33.632812 Z M 28.886719 -16.160156 "/></g></g></g><g fill="#6a65ff" fill-opacity="1"><g transform="translate(563.949277, 621.866484)"><g><path d="M -4 -16.828125 L -11.765625 -27.269531 L -5.789062 -31.714844 C -4.238281 -32.871094 -2.625 -33.308594 -0.976562 -33.066406 C 0.664062 -32.757812 2.054688 -31.914062 3.183594 -30.398438 C 4.335938 -28.847656 4.773438 -27.234375 4.550781 -25.480469 C 4.296875 -23.765625 3.453125 -22.375 1.976562 -21.277344 Z M 5.886719 -32.292969 C 4.199219 -34.5625 1.984375 -35.796875 -0.699219 -36.089844 C -3.359375 -36.347656 -5.785156 -35.65625 -8.054688 -33.96875 L -16.300781 -27.832031 L 2.835938 -2.109375 L 5.484375 -4.082031 L -2.085938 -14.257812 L 3.511719 -18.421875 C 5.78125 -20.109375 7.175781 -22.265625 7.660156 -24.855469 C 8.121094 -27.550781 7.574219 -30.023438 5.886719 -32.292969 Z M 5.886719 -32.292969 "/></g></g></g><g fill="#6a65ff" fill-opacity="1"><g transform="translate(589.03498, 603.192858)"><g><path d="M 11.59375 -33.695312 C 14.15625 -31.054688 15.375 -27.902344 15.316406 -24.300781 C 15.261719 -20.636719 13.910156 -17.554688 11.304688 -15.027344 C 8.699219 -12.5 5.578125 -11.25 1.945312 -11.339844 C -1.691406 -11.363281 -4.769531 -12.710938 -7.328125 -15.351562 C -9.824219 -17.925781 -11.074219 -21.046875 -11.019531 -24.710938 C -10.960938 -28.3125 -9.644531 -31.425781 -7.039062 -33.953125 C -4.433594 -36.480469 -1.277344 -37.699219 2.355469 -37.675781 C 5.988281 -37.585938 9.101562 -36.269531 11.59375 -33.695312 Z M 13.964844 -35.992188 C 12.390625 -37.617188 10.574219 -38.8125 8.554688 -39.679688 C 6.566406 -40.511719 4.507812 -40.941406 2.375 -40.976562 C 0.273438 -40.976562 -1.800781 -40.605469 -3.8125 -39.839844 C -5.859375 -39.035156 -7.710938 -37.898438 -9.335938 -36.324219 C -10.960938 -34.75 -12.191406 -32.898438 -13.023438 -30.914062 C -13.851562 -28.925781 -14.285156 -26.863281 -14.351562 -24.765625 C -14.382812 -22.632812 -14.015625 -20.558594 -13.25 -18.546875 C -12.445312 -16.5 -11.273438 -14.679688 -9.699219 -13.054688 C -8.125 -11.429688 -6.308594 -10.167969 -4.324219 -9.335938 C -2.300781 -8.472656 -0.242188 -8.039062 1.890625 -8.007812 C 4.027344 -7.972656 6.097656 -8.339844 8.109375 -9.109375 C 10.125 -9.878906 11.976562 -11.082031 13.601562 -12.660156 C 15.226562 -14.234375 16.453125 -16.015625 17.320312 -18.035156 C 18.152344 -20.023438 18.582031 -22.082031 18.617188 -24.21875 C 18.648438 -26.351562 18.28125 -28.421875 17.480469 -30.46875 C 16.710938 -32.484375 15.539062 -34.367188 13.964844 -35.992188 Z M 13.964844 -35.992188 "/></g></g></g><g fill="#6a65ff" fill-opacity="1"><g transform="translate(620.152872, 572.311305)"><g><path d="M 19.589844 -21.535156 L -3.523438 -48.414062 L -5.542969 -45.746094 L 9.992188 -27.6875 L -15.878906 -35.238281 L -1.660156 -12.324219 L -23.210938 -22.453125 L -25.261719 -19.75 L 6.882812 -4.78125 L -9.003906 -30.027344 Z M 19.589844 -21.535156 "/></g></g></g><g fill="#6a65ff" fill-opacity="1"><g transform="translate(645.652004, 537.411874)"><g><path d="M 11.164062 -19.632812 L 8.5 -21.148438 L 0.714844 -7.457031 L -9.203125 -13.097656 L -1.652344 -26.378906 L -4.355469 -27.914062 L -11.90625 -14.636719 L -21.828125 -20.277344 L -14.042969 -33.964844 L -16.707031 -35.480469 L -26.121094 -18.921875 L 1.75 -3.074219 Z M 11.164062 -19.632812 "/></g></g></g><g fill="#6a65ff" fill-opacity="1"><g transform="translate(661.233797, 509.308424)"><g><path d="M -11.855469 -12.535156 L -23.855469 -17.695312 L -20.910156 -24.539062 C -20.148438 -26.316406 -18.972656 -27.503906 -17.378906 -28.101562 C -15.804688 -28.65625 -14.179688 -28.625 -12.445312 -27.878906 C -10.710938 -27.132812 -9.523438 -25.957031 -8.839844 -24.328125 C -8.152344 -22.699219 -8.1875 -21.070312 -8.914062 -19.382812 Z M -11.097656 -30.890625 C -13.609375 -31.972656 -16.1875 -31.949219 -18.65625 -30.855469 C -21.066406 -29.789062 -22.882812 -27.953125 -24 -25.351562 L -28.058594 -15.910156 L 1.394531 -3.25 L 2.699219 -6.28125 L -8.953125 -11.289062 L -7.445312 -14.796875 L 7.933594 -18.453125 L 9.683594 -22.523438 L -5.878906 -18.4375 C -5.023438 -20.789062 -5.007812 -23.089844 -5.835938 -25.347656 C -6.742188 -27.890625 -8.5 -29.773438 -11.097656 -30.890625 Z M -11.097656 -30.890625 "/></g></g></g><g fill="#333333" fill-opacity="1"><g transform="translate(673.823422, 479.901217)"><g><path d="M 8.988281 -31.855469 L 9.898438 -35.078125 L -25.023438 -37.191406 L -1.46875 -19.617188 L -30.734375 -16.953125 L 0.128906 -0.453125 L 1.050781 -3.722656 L -19.566406 -14.683594 L 6.835938 -17.277344 L -14.332031 -33.242188 Z M 8.988281 -31.855469 "/></g></g></g><g fill="#333333" fill-opacity="1"><g transform="translate(684.817267, 438.100456)"><g><path d="M 3.222656 -22.351562 L 0.191406 -22.789062 L -2.058594 -7.203125 L -13.351562 -8.832031 L -11.171875 -23.953125 L -14.25 -24.398438 L -16.429688 -9.277344 L -27.722656 -10.90625 L -25.476562 -26.492188 L -28.507812 -26.929688 L -31.226562 -8.078125 L 0.503906 -3.5 Z M 3.222656 -22.351562 "/></g></g></g><g fill="#333333" fill-opacity="1"><g transform="translate(689.127938, 406.175545)"><g><path d="M -23.429688 -7.472656 L 2.652344 -24.785156 L -31.375 -25.707031 L -31.464844 -22.40625 L -7.898438 -21.769531 L -33.980469 -4.457031 L 0.0976562 -3.535156 L 0.183594 -6.835938 Z M -23.429688 -7.472656 "/></g></g></g><g fill="#333333" fill-opacity="1"><g transform="translate(689.742502, 371.579697)"><g><path d="M -18.714844 -26.742188 C -21.011719 -26.515625 -23.078125 -25.84375 -24.96875 -24.804688 C -26.855469 -23.769531 -28.429688 -22.429688 -29.695312 -20.839844 C -30.957031 -19.199219 -31.867188 -17.359375 -32.472656 -15.308594 C -33.074219 -13.214844 -33.285156 -11.015625 -33.066406 -8.761719 L -32.253906 -0.410156 L -0.34375 -3.519531 L -1.15625 -11.871094 C -1.375 -14.125 -1.960938 -16.246094 -2.957031 -18.1875 C -3.945312 -20.082031 -5.242188 -21.707031 -6.796875 -23.070312 C -8.347656 -24.386719 -10.101562 -25.402344 -12.15625 -26.054688 C -14.210938 -26.707031 -16.367188 -26.96875 -18.714844 -26.742188 Z M -18.402344 -23.550781 C -14.742188 -23.90625 -11.5625 -22.890625 -8.921875 -20.589844 C -6.28125 -18.289062 -4.808594 -15.304688 -4.453125 -11.644531 L -3.949219 -6.484375 L -29.289062 -4.015625 L -29.792969 -9.175781 C -30.148438 -12.835938 -29.230469 -16.050781 -27.132812 -18.816406 C -24.9375 -21.585938 -22.015625 -23.199219 -18.402344 -23.550781 Z M -18.402344 -23.550781 "/></g></g></g></svg>